<mxfile host="app.diagrams.net" modified="2021-01-01T12:21:10.132Z" agent="5.0 (Windows NT 10.0; Win64; x64) AppleWebKit/537.36 (KHTML, like Gecko) Chrome/87.0.4280.88 Safari/537.36" etag="ZCYrE4YbcPUxJC3IxSHZ" version="14.1.6" type="github" pages="2">
  <diagram id="T-JYbAPKC3fNSfdUYRtq" name="第 1 页">
    <mxGraphModel dx="2062" dy="1122" grid="0" gridSize="10" guides="1" tooltips="1" connect="1" arrows="1" fold="1" page="1" pageScale="1" pageWidth="827" pageHeight="1169" background="none" math="0" shadow="0">
      <root>
        <mxCell id="0" />
        <mxCell id="1" parent="0" />
        <mxCell id="ofKjHtBBYJfgyg2bjRSy-6" value="" style="html=1;shadow=0;dashed=0;align=center;verticalAlign=middle;shape=mxgraph.arrows2.arrow;dy=0.6;dx=40;direction=north;notch=0;fillColor=#f8cecc;strokeColor=#b85450;" parent="1" vertex="1">
          <mxGeometry x="350" y="246" width="40" height="329" as="geometry" />
        </mxCell>
        <mxCell id="ofKjHtBBYJfgyg2bjRSy-8" value="低" style="text;html=1;resizable=0;autosize=1;align=center;verticalAlign=middle;points=[];fillColor=none;strokeColor=none;rounded=0;" parent="1" vertex="1">
          <mxGeometry x="359" y="584" width="22" height="18" as="geometry" />
        </mxCell>
        <mxCell id="ofKjHtBBYJfgyg2bjRSy-9" value="高" style="text;html=1;resizable=0;autosize=1;align=center;verticalAlign=middle;points=[];fillColor=none;strokeColor=none;rounded=0;" parent="1" vertex="1">
          <mxGeometry x="359" y="219" width="22" height="18" as="geometry" />
        </mxCell>
        <mxCell id="ofKjHtBBYJfgyg2bjRSy-10" value="虚引用" style="shape=ext;double=1;rounded=1;whiteSpace=wrap;html=1;fontFamily=Times New Roman;fontSize=14;fillColor=#d5e8d4;strokeColor=#82b366;" parent="1" vertex="1">
          <mxGeometry x="399" y="516" width="105" height="47" as="geometry" />
        </mxCell>
        <mxCell id="ofKjHtBBYJfgyg2bjRSy-11" value="弱引用" style="shape=ext;double=1;rounded=1;whiteSpace=wrap;html=1;fontFamily=Times New Roman;fontSize=14;fillColor=#ffe6cc;strokeColor=#d79b00;" parent="1" vertex="1">
          <mxGeometry x="399" y="432" width="105" height="47" as="geometry" />
        </mxCell>
        <mxCell id="ofKjHtBBYJfgyg2bjRSy-12" value="软引用" style="shape=ext;double=1;rounded=1;whiteSpace=wrap;html=1;fontFamily=Times New Roman;fontSize=14;fillColor=#fff2cc;strokeColor=#d6b656;" parent="1" vertex="1">
          <mxGeometry x="397" y="353" width="105" height="47" as="geometry" />
        </mxCell>
        <mxCell id="ofKjHtBBYJfgyg2bjRSy-13" value="强引用" style="shape=ext;double=1;rounded=1;whiteSpace=wrap;html=1;fontFamily=Times New Roman;fontSize=14;fillColor=#e1d5e7;strokeColor=#9673a6;" parent="1" vertex="1">
          <mxGeometry x="397" y="272" width="105" height="47" as="geometry" />
        </mxCell>
      </root>
    </mxGraphModel>
  </diagram>
  <diagram id="Hv499Xco5jDwvxd1IBvP" name="Page-2">
    <mxGraphModel dx="2062" dy="1122" grid="0" gridSize="10" guides="1" tooltips="1" connect="1" arrows="1" fold="1" page="1" pageScale="1" pageWidth="3300" pageHeight="4681" background="none" math="0" shadow="0">
      <root>
        <mxCell id="oGVXgyEjzc3pLTFQjNM8-0" />
        <mxCell id="oGVXgyEjzc3pLTFQjNM8-1" parent="oGVXgyEjzc3pLTFQjNM8-0" />
        <mxCell id="w-nOj-klntfRk7Izf78A-40" value="" style="shape=ext;double=1;whiteSpace=wrap;html=1;aspect=fixed;strokeWidth=3;fillColor=#ffffff;gradientColor=none;" vertex="1" parent="oGVXgyEjzc3pLTFQjNM8-1">
          <mxGeometry x="711" y="372" width="182" height="182" as="geometry" />
        </mxCell>
        <mxCell id="w-nOj-klntfRk7Izf78A-6" value="" style="rounded=0;whiteSpace=wrap;html=1;strokeWidth=3;fillColor=#f9f7ed;strokeColor=#36393d;" vertex="1" parent="oGVXgyEjzc3pLTFQjNM8-1">
          <mxGeometry x="121" y="193" width="245" height="629" as="geometry" />
        </mxCell>
        <mxCell id="w-nOj-klntfRk7Izf78A-8" value="对象引用" style="whiteSpace=wrap;html=1;strokeWidth=3;fillColor=#cce5ff;strokeColor=#36393d;" vertex="1" parent="oGVXgyEjzc3pLTFQjNM8-1">
          <mxGeometry x="121" y="160" width="245" height="38" as="geometry" />
        </mxCell>
        <mxCell id="w-nOj-klntfRk7Izf78A-42" style="edgeStyle=orthogonalEdgeStyle;rounded=0;orthogonalLoop=1;jettySize=auto;html=1;entryX=0.5;entryY=0;entryDx=0;entryDy=0;fontSize=20;strokeWidth=3;" edge="1" parent="oGVXgyEjzc3pLTFQjNM8-1" source="w-nOj-klntfRk7Izf78A-27" target="w-nOj-klntfRk7Izf78A-40">
          <mxGeometry relative="1" as="geometry" />
        </mxCell>
        <mxCell id="w-nOj-klntfRk7Izf78A-27" value="&lt;span style=&quot;text-align: left&quot;&gt;持有：真实引用对象&lt;/span&gt;" style="rounded=1;arcSize=10;whiteSpace=wrap;html=1;align=center;strokeWidth=3;fillColor=#f8cecc;strokeColor=#b85450;" vertex="1" parent="oGVXgyEjzc3pLTFQjNM8-1">
          <mxGeometry x="169" y="297" width="155" height="52" as="geometry" />
        </mxCell>
        <mxCell id="w-nOj-klntfRk7Izf78A-28" value="&lt;span style=&quot;font-size: 14px&quot;&gt;强引用&lt;/span&gt;" style="rounded=1;arcSize=10;whiteSpace=wrap;html=1;align=center;strokeWidth=3;fillColor=#f8cecc;strokeColor=#b85450;" vertex="1" parent="oGVXgyEjzc3pLTFQjNM8-1">
          <mxGeometry x="169" y="272" width="155" height="25" as="geometry" />
        </mxCell>
        <mxCell id="w-nOj-klntfRk7Izf78A-45" style="edgeStyle=orthogonalEdgeStyle;rounded=0;orthogonalLoop=1;jettySize=auto;html=1;strokeWidth=3;fontSize=16;" edge="1" parent="oGVXgyEjzc3pLTFQjNM8-1" source="w-nOj-klntfRk7Izf78A-29" target="w-nOj-klntfRk7Izf78A-40">
          <mxGeometry relative="1" as="geometry" />
        </mxCell>
        <mxCell id="w-nOj-klntfRk7Izf78A-29" value="&lt;span style=&quot;text-align: left&quot;&gt;持有：真实引用对象&lt;/span&gt;" style="rounded=1;arcSize=10;whiteSpace=wrap;html=1;align=center;strokeWidth=3;fillColor=#fff2cc;strokeColor=#d6b656;" vertex="1" parent="oGVXgyEjzc3pLTFQjNM8-1">
          <mxGeometry x="169" y="437" width="155" height="52" as="geometry" />
        </mxCell>
        <mxCell id="w-nOj-klntfRk7Izf78A-30" value="&lt;span style=&quot;font-size: 14px&quot;&gt;软引用&lt;/span&gt;" style="rounded=1;arcSize=10;whiteSpace=wrap;html=1;align=center;strokeWidth=3;fillColor=#fff2cc;strokeColor=#d6b656;" vertex="1" parent="oGVXgyEjzc3pLTFQjNM8-1">
          <mxGeometry x="169" y="412" width="155" height="25" as="geometry" />
        </mxCell>
        <mxCell id="w-nOj-klntfRk7Izf78A-35" value="&lt;span style=&quot;text-align: left&quot;&gt;持有：真实引用对象&lt;/span&gt;" style="rounded=1;arcSize=10;whiteSpace=wrap;html=1;align=center;strokeWidth=3;fillColor=#ffe6cc;strokeColor=#d79b00;" vertex="1" parent="oGVXgyEjzc3pLTFQjNM8-1">
          <mxGeometry x="166" y="585" width="155" height="52" as="geometry" />
        </mxCell>
        <mxCell id="w-nOj-klntfRk7Izf78A-36" value="&lt;span style=&quot;font-size: 14px&quot;&gt;弱引用&lt;/span&gt;" style="rounded=1;arcSize=10;whiteSpace=wrap;html=1;align=center;strokeWidth=3;fillColor=#ffe6cc;strokeColor=#d79b00;" vertex="1" parent="oGVXgyEjzc3pLTFQjNM8-1">
          <mxGeometry x="166" y="560" width="155" height="25" as="geometry" />
        </mxCell>
        <mxCell id="w-nOj-klntfRk7Izf78A-37" value="&lt;span style=&quot;text-align: left&quot;&gt;持有：null&lt;/span&gt;" style="rounded=1;arcSize=10;whiteSpace=wrap;html=1;align=center;strokeWidth=3;fillColor=#d5e8d4;strokeColor=#82b366;" vertex="1" parent="oGVXgyEjzc3pLTFQjNM8-1">
          <mxGeometry x="166" y="721" width="155" height="52" as="geometry" />
        </mxCell>
        <mxCell id="w-nOj-klntfRk7Izf78A-38" value="&lt;span style=&quot;font-size: 14px&quot;&gt;虚引用&lt;/span&gt;" style="rounded=1;arcSize=10;whiteSpace=wrap;html=1;align=center;strokeWidth=3;fillColor=#d5e8d4;strokeColor=#82b366;" vertex="1" parent="oGVXgyEjzc3pLTFQjNM8-1">
          <mxGeometry x="166" y="696" width="155" height="25" as="geometry" />
        </mxCell>
        <mxCell id="w-nOj-klntfRk7Izf78A-39" value="" style="shape=image;html=1;verticalAlign=top;verticalLabelPosition=bottom;labelBackgroundColor=#ffffff;imageAspect=0;aspect=fixed;image=https://cdn4.iconfinder.com/data/icons/computer-and-web-2/500/Delete-128.png;strokeWidth=3;fillColor=#ffffff;gradientColor=none;" vertex="1" parent="oGVXgyEjzc3pLTFQjNM8-1">
          <mxGeometry x="738" y="394" width="128" height="128" as="geometry" />
        </mxCell>
        <mxCell id="w-nOj-klntfRk7Izf78A-41" value="垃圾回收器" style="text;html=1;align=center;verticalAlign=middle;resizable=0;points=[];autosize=1;fontSize=20;fontStyle=1" vertex="1" parent="oGVXgyEjzc3pLTFQjNM8-1">
          <mxGeometry x="747" y="516" width="110" height="28" as="geometry" />
        </mxCell>
        <mxCell id="w-nOj-klntfRk7Izf78A-44" value="&lt;span style=&quot;font-weight: 700; background-color: rgb(255, 255, 255); font-size: 16px;&quot;&gt;强引用只有设置为null才会被回收（object = null）&lt;/span&gt;" style="text;html=1;align=center;verticalAlign=middle;resizable=0;points=[];autosize=1;fontSize=16;" vertex="1" parent="oGVXgyEjzc3pLTFQjNM8-1">
          <mxGeometry x="428" y="283" width="372" height="23" as="geometry" />
        </mxCell>
        <mxCell id="w-nOj-klntfRk7Izf78A-46" value="内存空间不足时" style="text;html=1;align=center;verticalAlign=middle;resizable=0;points=[];autosize=1;fontSize=16;fontStyle=1" vertex="1" parent="oGVXgyEjzc3pLTFQjNM8-1">
          <mxGeometry x="437" y="425" width="122" height="23" as="geometry" />
        </mxCell>
        <mxCell id="w-nOj-klntfRk7Izf78A-50" style="edgeStyle=orthogonalEdgeStyle;rounded=0;orthogonalLoop=1;jettySize=auto;html=1;strokeWidth=3;fontSize=16;" edge="1" parent="oGVXgyEjzc3pLTFQjNM8-1" source="w-nOj-klntfRk7Izf78A-49">
          <mxGeometry relative="1" as="geometry">
            <mxPoint x="799" y="558" as="targetPoint" />
          </mxGeometry>
        </mxCell>
        <mxCell id="w-nOj-klntfRk7Izf78A-49" value="" style="shape=curlyBracket;whiteSpace=wrap;html=1;rounded=1;strokeWidth=3;fillColor=#ffffff;gradientColor=none;fontSize=16;rotation=-180;" vertex="1" parent="oGVXgyEjzc3pLTFQjNM8-1">
          <mxGeometry x="393" y="577" width="32" height="183" as="geometry" />
        </mxCell>
        <mxCell id="w-nOj-klntfRk7Izf78A-52" value="直接回收" style="text;html=1;align=center;verticalAlign=middle;resizable=0;points=[];autosize=1;fontSize=16;fontStyle=1" vertex="1" parent="oGVXgyEjzc3pLTFQjNM8-1">
          <mxGeometry x="549" y="633" width="74" height="23" as="geometry" />
        </mxCell>
        <mxCell id="w-nOj-klntfRk7Izf78A-53" value="" style="pointerEvents=1;verticalLabelPosition=bottom;shadow=0;dashed=0;align=center;html=1;verticalAlign=top;shape=mxgraph.electrical.plc_ladder.output_1;strokeWidth=3;fillColor=#ffffff;gradientColor=none;fontSize=16;" vertex="1" parent="oGVXgyEjzc3pLTFQjNM8-1">
          <mxGeometry x="895" y="453" width="187" height="31" as="geometry" />
        </mxCell>
        <mxCell id="w-nOj-klntfRk7Izf78A-56" value="" style="rounded=0;whiteSpace=wrap;html=1;strokeWidth=3;fillColor=#f9f7ed;strokeColor=#36393d;" vertex="1" parent="oGVXgyEjzc3pLTFQjNM8-1">
          <mxGeometry x="1084" y="186" width="245" height="629" as="geometry" />
        </mxCell>
        <mxCell id="w-nOj-klntfRk7Izf78A-57" value="GC回收后的结果" style="whiteSpace=wrap;html=1;strokeWidth=3;fillColor=#cce5ff;strokeColor=#36393d;" vertex="1" parent="oGVXgyEjzc3pLTFQjNM8-1">
          <mxGeometry x="1084" y="148" width="245" height="38" as="geometry" />
        </mxCell>
        <mxCell id="w-nOj-klntfRk7Izf78A-61" value="" style="aspect=fixed;html=1;points=[];align=center;image;fontSize=12;image=img/lib/azure2/general/Input_Output.svg;strokeWidth=3;fillColor=#ffffff;gradientColor=none;" vertex="1" parent="oGVXgyEjzc3pLTFQjNM8-1">
          <mxGeometry x="956.5" y="441" width="64" height="55.00000000000001" as="geometry" />
        </mxCell>
        <mxCell id="w-nOj-klntfRk7Izf78A-64" value="输出" style="text;html=1;align=center;verticalAlign=middle;resizable=0;points=[];autosize=1;fontSize=16;fontStyle=1" vertex="1" parent="oGVXgyEjzc3pLTFQjNM8-1">
          <mxGeometry x="967.5" y="410" width="42" height="23" as="geometry" />
        </mxCell>
        <mxCell id="w-nOj-klntfRk7Izf78A-67" value="&lt;span style=&quot;font-size: 14px&quot;&gt;强引用&lt;/span&gt;" style="strokeWidth=3;html=1;shape=mxgraph.flowchart.multi-document;whiteSpace=wrap;fillColor=#f8cecc;fontSize=16;strokeColor=#b85450;" vertex="1" parent="oGVXgyEjzc3pLTFQjNM8-1">
          <mxGeometry x="1112" y="316" width="189" height="104" as="geometry" />
        </mxCell>
        <mxCell id="w-nOj-klntfRk7Izf78A-68" value="ReferenceQueue&lt;br&gt;引用队列" style="html=1;whiteSpace=wrap;rounded=1;dropTarget=0;strokeWidth=3;fillColor=#eeeeee;fontSize=16;strokeColor=#36393d;" vertex="1" parent="oGVXgyEjzc3pLTFQjNM8-1">
          <mxGeometry x="1100.75" y="524" width="211.5" height="137" as="geometry" />
        </mxCell>
        <mxCell id="w-nOj-klntfRk7Izf78A-69" value="" style="html=1;shape=message;outlineConnect=0;" vertex="1" parent="w-nOj-klntfRk7Izf78A-68">
          <mxGeometry width="20" height="14" relative="1" as="geometry">
            <mxPoint x="7" y="7" as="offset" />
          </mxGeometry>
        </mxCell>
      </root>
    </mxGraphModel>
  </diagram>
</mxfile>
